PathFileType	4	(X/Y/Z)	6_coords_data.trc
DataRate	CameraRate	NumFrames	NumMarkers	Units	OrigDataRate	OrigDataStartFrame	OrigNumFrames
30.0	30.0	6	21	m	30.0	41	60
Frame#	Time	THUMB_TIP	THUMB_IP	THUMB_MCP	THUMB_CMC	INDEX_TIP	INDEX_DIP	INDEX_PIP	INDEX_MCP	MIDDLE_TIP	MIDDLE_DIP	MIDDLE_PIP	MIDDLE_MCP	RING_TIP	RING_DIP	RING_PIP	RING_MCP	PINKY_TIP	PINKY_DIP	PINKY_PIP	PINKY_MCP	WRIST
X1	Y1	Z1	X2	Y2	Z2	X3	Y3	Z3	X4	Y4	Z4	X5	Y5	Z5	X6	Y6	Z6	X7	Y7	Z7	X8	Y8	Z8	X9	Y9	Z9	X10	Y10	Z10	X11	Y11	Z11	X12	Y12	Z12	X13	Y13	Z13	X14	Y14	Z14	X15	Y15	Z15	X16	Y16	Z16	X17	Y17	Z17	X18	Y18	Z18	X19	Y19	Z19	X20	Y20	Z20	X21	Y21	Z21
39	1.3333333333333275	0.5646729347759039	0.024417913940326774	-0.05809044676252956	0.552068109336274	0.011296005430111777	-0.07212376043699731	0.5273308122143128	-0.0056085732352088025	-0.08055710800767169	0.48852734399687303	-0.016399859050793997	-0.06138084651736814	0.5858005143216894	0.06666481974371774	-0.07657117945580061	0.5693928289764167	0.06142215206605817	-0.08216602505082388	0.5468060481262362	0.05252624536563755	-0.08870131447083637	0.5083184474179858	0.03484467068769448	-0.09314007585556985	0.5452781659758347	0.0018633847617164356	-0.049361800398711186	0.5495105907380997	0.019040076079158252	-0.0532409570102802	0.5422671515793699	0.04545836714158691	-0.0631916372128889	0.4990182128254931	0.04624933468089276	-0.07437428394857643	0.5572643534180646	0.01209502133831164	-0.039509880604587544	0.5510628896732161	0.02900291058765847	-0.040325434743288285	0.5366520495590797	0.04897432979628957	-0.04402003634534554	0.49705315551101625	0.04912200698288771	-0.05218254917037715	0.557488588911646	0.08227553989571912	-0.018650257490176625	0.5447222507808505	0.07127016337780656	-0.02163392946094933	0.5285949253514759	0.058542069519380124	-0.0259602466275623	0.5001620398358803	0.03748447378981057	-0.03296254156187203	0.46228308100186083	-0.023011742144276925	-0.05198982011943101
40	1.3666666666666607	0.5652192684520516	0.02877183992947685	-0.05448181714464115	0.55221500523156	0.014337404401439602	-0.06675113697416352	0.5289608441904471	-0.004443194723619093	-0.07543175278053554	0.48916920903646366	-0.015840222359764344	-0.05879974950873401	0.5832740218711135	0.07193038094289728	-0.0707990433249236	0.567796678700992	0.06541750111249078	-0.0775838973918126	0.5464491983456583	0.05486660227281803	-0.08564450835833559	0.5098738473674684	0.03411760680012954	-0.09237941605603839	0.5498736547903524	0.010734481801649487	-0.041592377712566464	0.5513381668086754	0.02778102615415079	-0.047531277458006504	0.5401444694838471	0.051171464479243145	-0.06083534018937495	0.4981285701684055	0.046421282248149454	-0.07526613692711898	0.5596005272637632	0.024801521377048497	-0.03222492577445063	0.550049290302784	0.039809552816547966	-0.03514603255548829	0.5322875771176628	0.05590292524544094	-0.04190657155725738	0.4938894292126174	0.050550323798495334	-0.053380573876083	0.5478635138988341	0.08927559837977384	-0.014559375018589948	0.5361993312991102	0.077366314869316	-0.018447280694893486	0.52135481986377	0.06355154861217938	-0.023888303807023337	0.49540143292437067	0.04024649922554291	-0.0330632605077526	0.4622830810018609	-0.023011742144276925	-0.05198982011943096
41	1.3999999999999937	0.5656754589286592	0.03226216790432468	-0.05193157570584234	0.5520023989791012	0.016921872616936673	-0.06221373365597799	0.5300369469339918	-0.003418029602112904	-0.07073589853196469	0.4895073591735508	-0.015209669791775737	-0.0563067704361217	0.580627937658858	0.07668434097223964	-0.06639183273863969	0.566105823694756	0.06901587125017927	-0.07402745832764518	0.5460309980484159	0.056934608394054065	-0.08314087130359771	0.5114882749217771	0.03343338431416698	-0.0913948909148719	0.5541133384019534	0.021403822968068087	-0.03475807279595455	0.5524992801305006	0.03740187852715671	-0.043092161481867425	0.5378537915843671	0.05659193862767964	-0.059421913733000875	0.4976440357811986	0.046411077572049764	-0.07602533288134272	0.5599789102441857	0.038730382978586	-0.0264020876348815	0.5477984202947074	0.05099682020784457	-0.03151776767680384	0.5277353673207175	0.06236690248986998	-0.040918571539391685	0.4912945991116448	0.05157499432302626	-0.054714439197899284	0.5381561130250483	0.09545920570107358	-0.011772636292889493	0.5277303974281847	0.08269110512340039	-0.016385668043456036	0.5143006921780737	0.06785286276849534	-0.02273244673128233	0.49109911516819693	0.042481819425705614	-0.03363567721371438	0.46228308100186083	-0.023011742144276925	-0.051989820119430985
42	1.4333333333333271	0.566054293142096	0.03483980986652224	-0.050227457433111355	0.5515732452561777	0.019047276087792775	-0.05852776640166374	0.5306335161968522	-0.002501793528943197	-0.06665090283872446	0.48958556759942207	-0.014583665594621098	-0.054042005847658114	0.5782140250831214	0.08090849202054362	-0.0634367299253723	0.5645808137311268	0.07219465686027426	-0.07157335238383128	0.545675810934393	0.05874763476641587	-0.08125778830249855	0.51310175597874	0.03281603592563065	-0.09020872229324406	0.5578491400553142	0.033891016302936006	-0.029480583162909135	0.5529983004573571	0.04763488826538742	-0.04023118029398218	0.5356136073363128	0.06164665511367351	-0.05896223431868641	0.49755888403336174	0.04625344107108498	-0.07659841635377812	0.5583957970814215	0.05309455753968095	-0.021990374764304876	0.544584280369228	0.061879537504131665	-0.029544587703652314	0.5233567006473296	0.0681682292274941	-0.040947315208901186	0.4893953651768078	0.05222747604570832	-0.056021827309001376	0.5288979718952836	0.10072007902500968	-0.010270449955597227	0.5197620915038959	0.08717853747328907	-0.01538536362811227	0.5078103822274296	0.07140138347882963	-0.022388939586574064	0.4874715234272865	0.044195912854974706	-0.0345164554840037	0.46228308100186094	-0.023011742144276925	-0.051989820119430985
43	1.4666666666666603	0.566430206816338	0.03655938958719407	-0.049270647454139005	0.5511053515419471	0.02069518572712925	-0.055710821885416595	0.5308705655933329	-0.0017083125609872463	-0.06329084181072864	0.4894757133297303	-0.013999596602700781	-0.05209796270477762	0.5762619506779835	0.08466087369213315	-0.061811493036100146	0.5633992651321944	0.07499015941249687	-0.07011983859173193	0.5455011249485561	0.06030283731825459	-0.07991519364741118	0.5146809597973945	0.03229222202157711	-0.08881232491297447	0.5606727611023936	0.047569609155220904	-0.026343404753737698	0.5529700376372724	0.05796294610992603	-0.03901804866060268	0.5336537154337411	0.06616961734556437	-0.05924030851847989	0.49788175888265085	0.046001436986704	-0.07684029563550349	0.5556222087837385	0.06687648158528026	-0.02002340409258896	0.5407912638830958	0.0719068501606146	-0.028953043802588063	0.5194449791858575	0.07321674770239006	-0.041712364985727335	0.4882605838973007	0.052563921990913975	-0.05706538145215609	0.520547579606921	0.10495192069263048	-0.009642969299793913	0.5126584623068351	0.09076225650018743	-0.015066552832033953	0.5021722240684631	0.07416656067999305	-0.02251193441068311	0.4846465047790813	0.04542032292272913	-0.035449725149161115	0.4622830810018609	-0.023011742144276925	-0.05198982011943101
44	1.4999999999999936	0.5669548867548276	0.037447670256882226	-0.04878605012007298	0.5507785889439579	0.021843856785918603	-0.05356604952356944	0.5309253940418527	-0.0010839384679180997	-0.060565110673264144	0.48925512691129275	-0.013465817605648245	-0.050556718880053	0.574805627955586	0.08800760695659526	-0.06127352171578421	0.5625748141460534	0.07744739197892281	-0.06945209452415926	0.54550736695752	0.06162868965246038	-0.07896423078124665	0.5161666066766857	0.03189075043841838	-0.08723531604525936	0.5623575381659384	0.06158117039330102	-0.025581679761956133	0.5523431843592068	0.06786420438508278	-0.03930159964844654	0.5319414421779426	0.07016253708852194	-0.05998725005527522	0.49845890048493197	0.045752370184185764	-0.07669686029843337	0.5518285214423295	0.07946969713040253	-0.01960415890570877	0.5367464558451449	0.08077746752697734	-0.029392980791516365	0.5160391324082738	0.07741390169409923	-0.04281211489058209	0.4877225705624919	0.05270030514965651	-0.057716184974707346	0.5133226874619257	0.1081861871679477	-0.009462012171791212	0.5066021512597283	0.0934746096670801	-0.015065928712115428	0.49749174398732554	0.07620300748143305	-0.022779828910569344	0.48257167626866454	0.04624522974966483	-0.036226262774034595	0.46228308100186083	-0.023011742144276925	-0.05198982011943101
